<svg width="99" height="62" viewBox="0 0 99 62" fill="none" xmlns="http://www.w3.org/2000/svg">
<path d="M45.6159 2.8443V5.9609C45.6159 6.69142 45.8399 7.36847 46.2193 7.93125H46.2048V11.308C48.2256 10.1386 50.0862 9.42148 50.9039 9.45065C50.1428 9.77155 49.2769 10.2055 48.3809 10.7282C45.8255 12.2172 43.9998 13.8545 44.3044 14.3857C44.4646 14.6652 45.186 14.5814 46.206 14.2216V15.7969C46.206 15.7969 46.2132 15.792 46.218 15.7896C48.2039 14.6324 50.0405 13.9238 50.8244 13.9639C50.0886 14.2738 49.248 14.6932 48.3785 15.2001C45.923 16.6307 44.1696 18.2048 44.461 18.7141C44.6103 18.9755 45.2691 18.9062 46.206 18.5853V20.535C46.33 20.4596 46.4553 20.3855 46.583 20.3101C48.4833 19.2028 50.2392 18.5294 50.9641 18.5853C50.262 18.8794 49.4576 19.2806 48.6254 19.7656C46.3036 21.1184 44.6453 22.6062 44.921 23.0888C45.0427 23.3003 45.516 23.2833 46.206 23.0827V25.0458C46.3529 24.9558 46.5023 24.8659 46.6552 24.7771C48.4833 23.7111 50.1705 23.0681 50.8485 23.1374C50.1753 23.4182 49.4022 23.8035 48.6013 24.2691C46.3915 25.5575 44.8126 26.9736 45.0752 27.4331C45.1896 27.6336 45.6376 27.619 46.2891 27.4306L46.8804 29.1895C47.055 29.0801 47.2333 28.9707 47.4175 28.8637C49.0445 27.9156 50.539 27.3577 51.0798 27.4634C50.4872 27.7065 49.802 28.0457 49.0915 28.4602C47.1899 29.5687 45.8315 30.7867 46.0579 31.1829C46.1916 31.4163 46.8527 31.3081 47.7631 30.9508L49.1204 33.6577L51.6771 28.7154C52.5743 28.0238 53.0909 27.4233 52.9452 27.1681C52.8609 27.0198 52.5646 27.0088 52.1275 27.1109V24.1426C52.8416 23.5239 53.2198 23.0122 53.0801 22.7679C52.9813 22.5953 52.6369 22.5819 52.1275 22.7022V19.802C53.0078 19.0751 53.4907 18.4649 53.3318 18.1866C53.215 17.9836 52.773 17.9921 52.1275 18.1696V15.1988C53.0295 14.4477 53.5196 13.818 53.3546 13.5299C53.2342 13.3197 52.785 13.3233 52.1275 13.4995V10.8546C53.1644 10.0171 53.7412 9.30601 53.5606 8.98876C53.4257 8.75416 52.897 8.77483 52.1275 9.00091V7.92761H52.113C52.4924 7.36482 52.7164 6.68778 52.7164 5.95725V2.84187L58.3175 0.0546875H55.4778H42.8521H40.5567L45.5942 2.82243L45.6159 2.8443Z" fill="white"/>
<path d="M65.542 40.7321H68.3167H83.8303C85.8933 40.7321 87.8045 40.5485 89.5663 40.179C91.327 39.8107 92.8564 39.1288 94.1523 38.1345C95.3023 37.269 96.261 36.2006 97.0269 34.9292C98.2312 33.0135 98.8333 30.8487 98.8333 28.4346C98.8333 26.0948 98.3082 24.1062 97.2593 22.4652C96.2092 20.8255 94.6532 19.6282 92.5915 18.8734C93.9415 18.1732 94.9639 17.4002 95.6576 16.5517C96.8992 15.0408 97.5194 13.0425 97.5194 10.5556C97.5194 8.14276 96.8992 6.0703 95.6576 4.33819C93.5959 1.5194 90.0914 0.0741467 85.1454 0H65.542V28.228C65.2855 31.0577 64.5762 33.3672 63.5911 35.1504C62.0954 37.8136 59.7819 39.6733 56.6508 40.7321H65.542ZM73.5915 7.07432H82.4622C84.4156 7.07432 86.0209 7.28582 87.2806 7.71004C88.7402 8.3178 89.4712 9.571 89.4712 11.4684C89.4712 13.1823 88.9232 14.3699 87.8285 15.0335C86.7146 15.7155 85.2731 16.0558 83.5028 16.0558H73.5915V7.07432ZM73.5915 22.7983H83.6388C85.3911 22.8165 86.7507 23.0475 87.7178 23.4887C89.4519 24.2812 90.319 25.7362 90.319 27.8548C90.319 30.36 89.4242 32.0557 87.6359 32.9394C86.6508 33.4183 85.2718 33.6577 83.5015 33.6577H73.5903V22.7971L73.5915 22.7983Z" fill="white"/>
<path d="M35.1458 35.1504C34.2173 33.4681 33.614 31.3191 33.3322 28.7057V0H24.954V15.5307H9.18383V0H0.833313V40.7321H9.18383V22.5491H24.954V40.7321H30.4202H33.3322H42.109C38.9743 39.6733 36.6524 37.8136 35.1458 35.1504Z" fill="white"/>
<path d="M8.14333 48.0117C8.7515 48.0117 9.29824 48.1114 9.78598 48.3083C10.2725 48.5064 10.6904 48.7775 11.0384 49.1227C11.3865 49.4679 11.6526 49.8678 11.8357 50.32C12.0187 50.7734 12.1115 51.262 12.1115 51.7859C12.1115 52.5906 11.9441 53.2871 11.6081 53.8742C11.2721 54.4625 10.7253 54.9086 9.96542 55.2149V55.2538C10.3327 55.3559 10.6362 55.5127 10.8771 55.723C11.1167 55.9345 11.313 56.1836 11.466 56.4705C11.6177 56.7574 11.7285 57.0746 11.7983 57.4186C11.8682 57.7638 11.9152 58.109 11.9404 58.453C11.9525 58.6706 11.9657 58.9259 11.9778 59.22C11.9898 59.5142 12.0127 59.8144 12.044 60.1207C12.0753 60.427 12.1259 60.7175 12.1958 60.9922C12.2656 61.2669 12.3692 61.5003 12.5089 61.6912H9.52826C9.36327 61.2572 9.26211 60.7394 9.22478 60.1389C9.18624 59.5385 9.12964 58.9635 9.05377 58.4141C8.95261 57.6982 8.73704 57.1755 8.40827 56.8425C8.0795 56.5106 7.54119 56.3441 6.79453 56.3441H3.81392V61.6899H0.833313V48.0081H8.14333V48.0117ZM7.07995 54.2011C7.76398 54.2011 8.2758 54.048 8.61782 53.7404C8.95984 53.4341 9.13085 52.9358 9.13085 52.2466C9.13085 51.5574 8.95984 51.1003 8.61782 50.8001C8.2758 50.4999 7.76398 50.3504 7.07995 50.3504H3.81513V54.2023H7.07995V54.2011Z" fill="white"/>
<path d="M24.8685 48.0117V50.5412H17.7114V53.4731H24.2808V55.8105H17.7114V59.1641H25.0202V61.6936H14.7296V48.0117H24.8685Z" fill="white"/>
<path d="M31.4186 48.0117L34.5895 57.4198H34.628L37.6279 48.0117H41.8236V61.6936H39.0321V51.9974H38.9947L35.6721 61.6936H33.3755L30.0529 52.0934H30.0156V61.6936H27.224V48.0117H31.4198H31.4186Z" fill="white"/>
<path d="M44.4995 52.0656C44.803 51.1904 45.2402 50.427 45.8098 49.7755C46.3794 49.124 47.0791 48.6135 47.9077 48.2427C48.7362 47.872 49.6695 47.6873 50.7076 47.6873C51.7578 47.6873 52.6947 47.872 53.5172 48.2427C54.3398 48.6135 55.0358 49.124 55.6055 49.7755C56.1751 50.427 56.6122 51.1904 56.9157 52.0656C57.2192 52.9407 57.3709 53.8888 57.3709 54.9111C57.3709 55.9078 57.2192 56.8365 56.9157 57.6995C56.6122 58.5613 56.1751 59.3125 55.6055 59.9506C55.0358 60.59 54.3398 61.0908 53.5172 61.4542C52.6947 61.8189 51.7578 62 50.7076 62C49.6695 62 48.7362 61.8177 47.9077 61.4542C47.0791 61.0908 46.3794 60.5888 45.8098 59.9494C45.2402 59.3113 44.8042 58.5601 44.4995 57.6983C44.196 56.8365 44.0443 55.9066 44.0443 54.9099C44.0443 53.8876 44.196 52.9395 44.4995 52.0643V52.0656ZM47.2236 56.5873C47.3561 57.1306 47.568 57.6193 47.8595 58.0532C48.1509 58.4871 48.5303 58.836 48.9987 59.0973C49.4672 59.3599 50.0368 59.49 50.7076 59.49C51.3784 59.49 51.948 59.3587 52.4165 59.0973C52.885 58.836 53.2643 58.4871 53.5558 58.0532C53.8472 57.6193 54.0592 57.1306 54.1916 56.5873C54.3241 56.0452 54.3915 55.486 54.3915 54.9111C54.3915 54.3106 54.3253 53.7296 54.1916 53.1668C54.0592 52.6052 53.8472 52.1032 53.5558 51.662C53.2643 51.222 52.885 50.8707 52.4165 50.6081C51.948 50.3468 51.3784 50.2155 50.7076 50.2155C50.0368 50.2155 49.4672 50.3468 48.9987 50.6081C48.5303 50.8707 48.1509 51.222 47.8595 51.662C47.568 52.102 47.3561 52.604 47.2236 53.1668C47.0912 53.7296 47.0249 54.3106 47.0249 54.9111C47.0249 55.486 47.0912 56.0452 47.2236 56.5873Z" fill="white"/>
<path d="M62.5542 48.0117L68.2119 57.1913H68.2505V48.0129H71.0408V61.6948H68.0602L62.4217 52.5359H62.3844V61.6948H59.5928V48.0129H62.5542V48.0117Z" fill="white"/>
<path d="M72.787 50.5412V48.0117H83.8941V50.5412H79.8309V61.6936H76.8503V50.5412H72.787Z" fill="white"/>
<path d="M95.607 60.6495C94.5822 61.5502 93.1647 61.9999 91.3547 61.9999C89.5194 61.9999 88.0995 61.5526 87.0927 60.6592C86.0859 59.7658 85.5838 58.3862 85.5838 56.5204V48.0129H88.5644V56.5204C88.5644 56.8911 88.5957 57.2557 88.6595 57.6131C88.7233 57.9717 88.8558 58.2877 89.0581 58.5624C89.2604 58.8371 89.5422 59.0608 89.9035 59.2334C90.2636 59.406 90.7489 59.4923 91.3559 59.4923C92.4193 59.4923 93.1527 59.2528 93.5585 58.7739C93.9632 58.295 94.1655 57.545 94.1655 56.5228V48.0154H97.1461V56.5228C97.1461 58.3752 96.6331 59.7524 95.6082 60.6531L95.607 60.6495Z" fill="white"/>
</svg>
